<?xml version="1.0" standalone="no"?>
<!DOCTYPE svg PUBLIC "-//W3C//DTD SVG 20010904//EN"
 "http://www.w3.org/TR/2001/REC-SVG-20010904/DTD/svg10.dtd">
<svg version="1.0" xmlns="http://www.w3.org/2000/svg"
 width="617.000000pt" height="617.000000pt" viewBox="0 0 617.000000 617.000000"
 preserveAspectRatio="xMidYMid meet">
<metadata>
Created by potrace 1.11, written by Peter Selinger 2001-2013
</metadata>
<g transform="translate(0.000000,617.000000) scale(0.100000,-0.100000)"
fill="#000000" stroke="none">
<path d="M2845 6159 c-612 -50 -1199 -281 -1675 -659 -146 -115 -363 -331
-483 -480 -657 -813 -856 -1897 -532 -2890 152 -463 389 -852 734 -1203 824
-839 2036 -1136 3151 -772 477 156 887 411 1241 772 156 158 270 298 378 463
518 790 647 1757 356 2650 -156 477 -411 887 -772 1241 -76 75 -185 173 -243
219 -605 481 -1394 721 -2155 659z m176 -2200 c9 -18 7 -30 -9 -63 -25 -50
-40 -233 -49 -568 l-6 -228 34 0 c19 1 86 7 149 15 103 12 117 12 133 -2 20
-19 21 -24 5 -46 -10 -13 -44 -21 -143 -32 -186 -22 -169 -7 -161 -139 9 -134
28 -251 55 -330 15 -43 18 -63 10 -77 -12 -24 -41 -24 -61 -1 -36 40 -72 217
-84 410 l-7 104 -61 -6 c-34 -4 -139 -18 -234 -32 -95 -13 -185 -24 -200 -24
-20 0 -51 -23 -122 -90 -290 -275 -624 -410 -917 -373 -205 26 -391 146 -302
194 18 9 26 7 48 -10 51 -42 150 -83 238 -98 154 -27 360 10 528 95 103 52
330 218 343 252 2 4 -88 7 -200 7 -394 -2 -597 57 -673 194 -48 89 -24 209 59
293 40 39 66 45 90 20 23 -22 20 -31 -18 -67 -72 -68 -92 -135 -60 -202 56
-119 334 -179 722 -156 95 6 177 13 183 16 24 15 150 183 258 344 143 213 361
559 361 574 0 19 33 47 56 47 14 0 28 -9 35 -21z m866 -927 c7 -4 21 -37 33
-73 33 -108 96 -179 159 -181 40 -1 63 21 96 90 37 79 70 119 115 142 122 62
255 -30 218 -153 -6 -21 -22 -46 -35 -54 -21 -14 -25 -14 -43 2 -12 10 -17 25
-13 38 14 60 14 75 -2 90 -25 25 -69 21 -105 -10 -95 -79 -93 -277 3 -347 39
-28 125 -27 190 2 63 28 155 123 202 207 33 58 41 66 64 63 96 -11 -64 -259
-219 -339 -57 -29 -75 -33 -145 -33 -63 -1 -89 4 -120 20 -55 28 -101 92 -116
159 -10 45 -16 54 -28 49 -57 -24 -122 -10 -178 39 -38 34 -53 27 -53 -24 0
-68 -56 -166 -110 -194 -38 -20 -134 -19 -169 1 -14 8 -37 31 -49 51 l-23 34
-45 -41 c-50 -46 -80 -60 -130 -60 -96 0 -154 66 -162 183 -8 128 53 299 110
305 19 2 30 -3 38 -18 9 -17 7 -29 -13 -63 -39 -65 -60 -151 -55 -220 4 -51 9
-64 33 -85 42 -35 89 -26 137 29 45 49 55 82 64 214 4 55 11 106 17 113 16 20
57 15 65 -9 5 -11 4 -55 -1 -97 -17 -153 5 -241 68 -268 62 -26 113 14 141
111 14 49 16 83 11 187 -6 114 -4 128 11 137 21 13 24 13 39 3z m1021 -438
c43 -30 21 -94 -31 -94 -40 0 -57 15 -57 51 0 27 30 59 55 59 6 0 21 -7 33
-16z"/>
<path d="M2851 3642 c-61 -100 -277 -425 -345 -517 -36 -49 -64 -90 -62 -92 2
-2 95 8 206 22 112 14 209 25 217 25 10 0 13 40 14 203 1 111 4 247 8 302 4
55 5 103 2 107 -3 3 -21 -19 -40 -50z"/>
</g>
</svg>
